<svg xmlns="http://www.w3.org/2000/svg" width="40" height="40" viewBox="0 0 40 40">
  <g fill="#00749A" fill-rule="evenodd" transform="translate(4 4)">
    <path d="M25.2656,15.3062 C25.2656,13.6102 24.6566,12.4352 24.1336,11.5212 C23.4376,10.3902 22.7866,9.4332 22.7866,8.3022 C22.7866,7.0402 23.7426,5.8662 25.0896,5.8662 C25.1516,5.8662 25.2086,5.8742 25.2686,5.8772 C22.8266,3.6402 19.5736,2.2742 15.9996,2.2742 C11.2036,2.2742 6.9866,4.7342 4.5326,8.4602 C4.8536,8.4702 5.1576,8.4772 5.4146,8.4772 C6.8506,8.4772 9.0736,8.3032 9.0736,8.3032 C9.8126,8.2592 9.9006,9.3462 9.1616,9.4332 C9.1616,9.4332 8.4166,9.5202 7.5896,9.5642 L12.5876,24.4312 L15.5916,15.4222 L13.4526,9.5642 C12.7146,9.5202 12.0146,9.4332 12.0146,9.4332 C11.2746,9.3892 11.3616,8.2592 12.1006,8.3022 C12.1006,8.3022 14.3676,8.4762 15.7156,8.4762 C17.1516,8.4762 19.3736,8.3022 19.3736,8.3022 C20.1146,8.2592 20.2016,9.3462 19.4616,9.4332 C19.4616,9.4332 18.7166,9.5202 17.8916,9.5642 L22.8516,24.3182 L24.2196,19.7432 C24.8136,17.8452 25.2656,16.4812 25.2656,15.3062 M2.2746,15.9992 C2.2746,21.4322 5.4316,26.1262 10.0096,28.3522 L3.4626,10.4132 C2.6776,12.1712 2.2726,14.0742 2.2746,15.9992"/>
    <path d="M28.043,9.4141 C28.103,9.8511 28.136,10.3211 28.136,10.8251 C28.136,12.2181 27.875,13.7841 27.092,15.7421 L22.899,27.8631 C26.98,25.4841 29.725,21.0631 29.725,15.9991 C29.729,13.6971 29.149,11.4321 28.043,9.4141 Z M16.24,17.2001 L12.122,29.1651 C13.381,29.5371 14.688,29.7251 16,29.7251 C17.598,29.7251 19.131,29.4491 20.558,28.9471 C20.52,28.8871 20.486,28.8241 20.46,28.7581 L16.24,17.2001 Z"/>
    <path d="M16,31.2652 C7.582,31.2652 0.733,24.4162 0.733,15.9992 C0.733,7.5822 7.582,0.7342 16,0.7342 C24.417,0.7342 31.265,7.5822 31.265,15.9992 C31.265,24.4162 24.416,31.2652 16,31.2652 M16,0.0002 C7.178,0.0002 0,7.1772 0,15.9992 C0,24.8222 7.178,31.9992 16,31.9992 C24.821,31.9992 32,24.8222 32,15.9992 C32,7.1772 24.821,0.0002 16,0.0002"/>
  </g>
</svg>
